<svg id="Capa_1" data-name="Capa 1" xmlns="http://www.w3.org/2000/svg" viewBox="0 0 228 34.18"><defs><style>.cls-1{fill:#fff;}</style></defs><title>LOGO - Swiss Medical Medicina Privada - blanco horizontal</title><path class="cls-1" d="M65.22,17.64a6.06,6.06,0,0,0-2.4-1.75,29.56,29.56,0,0,0-4.44-1.25A11.35,11.35,0,0,1,55,13.48a2,2,0,0,1-1-1.81,2.55,2.55,0,0,1,1.14-2.19,5.36,5.36,0,0,1,3.08-.78A12.88,12.88,0,0,1,63.5,10v-3a12.7,12.7,0,0,0-1.33-.53,12.56,12.56,0,0,0-4-.63,10,10,0,0,0-4,.77A6.36,6.36,0,0,0,51.44,8.8a5.31,5.31,0,0,0-.95,3.1,4.62,4.62,0,0,0,.78,2.76,5.76,5.76,0,0,0,2.34,1.79,20.55,20.55,0,0,0,4,1.23,17.88,17.88,0,0,1,3.81,1.13,1.93,1.93,0,0,1,1.06,1.76,2.32,2.32,0,0,1-1.14,2.05,7.46,7.46,0,0,1-3.57.72,11.5,11.5,0,0,1-3.49-.51,15.42,15.42,0,0,1-3.67-2v3.36a12.65,12.65,0,0,0,2.83,1.35,14.61,14.61,0,0,0,4.3.61,13.6,13.6,0,0,0,4.58-.71,5.9,5.9,0,0,0,2.73-2A5.19,5.19,0,0,0,66,20.31,4.21,4.21,0,0,0,65.22,17.64Z" transform="translate(-7.22 -5.89)"/><polygon class="cls-1" points="75.97 15.73 72.01 4.13 69.76 4.13 65.69 15.66 61.82 4.13 58.59 4.13 64.3 20.24 66.87 20.24 70.81 9.1 74.72 20.24 77.29 20.24 83.02 4.13 79.96 4.13 75.97 15.73"/><rect class="cls-1" x="85.33" y="4.13" width="3.18" height="16.11"/><path class="cls-1" d="M108.61,17.82a18.22,18.22,0,0,0-3.3-1,9.26,9.26,0,0,1-2.65-.91,1.43,1.43,0,0,1-.73-1.3,1.83,1.83,0,0,1,.84-1.62,4.14,4.14,0,0,1,2.36-.59,10.25,10.25,0,0,1,4.22,1l.19.09V10.8l-.07,0a9.48,9.48,0,0,0-1.11-.44,10.21,10.21,0,0,0-3.23-.52,8,8,0,0,0-3.29.63,5.17,5.17,0,0,0-2.23,1.77,4.35,4.35,0,0,0-.8,2.57,3.91,3.91,0,0,0,.66,2.3,4.78,4.78,0,0,0,1.93,1.48,16.88,16.88,0,0,0,3.27,1,11,11,0,0,1,2.72.88,1.38,1.38,0,0,1,.76,1.26,1.68,1.68,0,0,1-.84,1.5,4.61,4.61,0,0,1-2.48.55,9.89,9.89,0,0,1-2.73-.4A15.3,15.3,0,0,1,99.22,22v2.93l.06,0a7.83,7.83,0,0,0,2,.91,11.9,11.9,0,0,0,3.48.5,9.15,9.15,0,0,0,3.43-.59,4.86,4.86,0,0,0,2.26-1.68,4.31,4.31,0,0,0,.78-2.56,3.54,3.54,0,0,0-.69-2.24A5,5,0,0,0,108.61,17.82Z" transform="translate(-7.22 -5.89)"/><path class="cls-1" d="M123.63,17.82a18.22,18.22,0,0,0-3.3-1,9.26,9.26,0,0,1-2.65-.91,1.43,1.43,0,0,1-.73-1.3,1.83,1.83,0,0,1,.84-1.62,4.14,4.14,0,0,1,2.36-.59,10.25,10.25,0,0,1,4.22,1l.19.09V10.8l-.08,0a8.7,8.7,0,0,0-1.1-.44,10.21,10.21,0,0,0-3.23-.52,8,8,0,0,0-3.29.63,5.17,5.17,0,0,0-2.23,1.77,4.35,4.35,0,0,0-.8,2.57,3.84,3.84,0,0,0,.66,2.3,4.78,4.78,0,0,0,1.93,1.48,16.88,16.88,0,0,0,3.27,1,10.75,10.75,0,0,1,2.71.88,1.37,1.37,0,0,1,.77,1.26,1.68,1.68,0,0,1-.84,1.5,4.61,4.61,0,0,1-2.48.55,9.89,9.89,0,0,1-2.73-.4A15.3,15.3,0,0,1,114.24,22v2.93l.06,0a7.83,7.83,0,0,0,2,.91,11.9,11.9,0,0,0,3.48.5,9.19,9.19,0,0,0,3.43-.59,4.86,4.86,0,0,0,2.26-1.68,4.31,4.31,0,0,0,.78-2.56,3.54,3.54,0,0,0-.69-2.24A5.06,5.06,0,0,0,123.63,17.82Z" transform="translate(-7.22 -5.89)"/><polygon class="cls-1" points="135.71 14.34 130.31 4.13 127.79 4.13 127.79 20.24 130.63 20.24 130.61 10.26 134.64 17.67 136.74 17.67 140.75 10.15 140.75 20.24 143.59 20.24 143.59 4.13 141.09 4.13 135.71 14.34"/><polygon class="cls-1" points="146.72 20.24 157.67 20.24 157.67 17.68 149.83 17.68 149.83 13.31 157.21 13.31 157.21 10.78 149.83 10.78 149.83 6.68 157.67 6.68 157.67 4.13 146.72 4.13 146.72 20.24"/><path class="cls-1" d="M173.55,10h-6V26.13h6A8.56,8.56,0,0,0,179.72,24a7.92,7.92,0,0,0,2.2-5.94,7.88,7.88,0,0,0-2.2-5.93A8.6,8.6,0,0,0,173.55,10Zm-2.84,2.62h2.66c3.61,0,5.37,1.77,5.37,5.42S177,23.5,173.37,23.5h-2.66Z" transform="translate(-7.22 -5.89)"/><rect class="cls-1" x="177.27" y="4.13" width="3.18" height="16.11"/><path class="cls-1" d="M198.08,12.43a9.64,9.64,0,0,1,2.54.42,12.84,12.84,0,0,1,2,.77l0-2.79a13.47,13.47,0,0,0-1.5-.59A10.19,10.19,0,0,0,198,9.81a8.4,8.4,0,0,0-4.18,1,6.91,6.91,0,0,0-2.75,2.89,9.44,9.44,0,0,0-1,4.34,9.51,9.51,0,0,0,1,4.35,6.88,6.88,0,0,0,2.75,2.9,8.27,8.27,0,0,0,4.18,1,10.14,10.14,0,0,0,4.56-1l0-2.79a12,12,0,0,1-4.55,1.19,4.37,4.37,0,0,1-3.47-1.44,6.4,6.4,0,0,1-1.22-4.21,6.36,6.36,0,0,1,1.22-4.19A4.34,4.34,0,0,1,198.08,12.43Z" transform="translate(-7.22 -5.89)"/><path class="cls-1" d="M214.18,10h-2.55l-7.34,16.11h3.23l1.61-3.71h7.6l1.6,3.71h3.19Zm1.46,9.89h-5.45l2.72-6.29Z" transform="translate(-7.22 -5.89)"/><polygon class="cls-1" points="219.48 0.63 216.35 0.63 216.35 20.24 227.98 20.24 227.98 17.54 219.48 17.54 219.48 0.63"/><path class="cls-1" d="M56,33.46h1.12V40H55.87V36.11l-1.5,2.8h-.92L52,36.15V40H50.68V33.46h1.14l2.1,4Z" transform="translate(-7.22 -5.89)"/><path class="cls-1" d="M63.48,40V33.46H68v1.12H64.88v1.53h2.91v1.11H64.88v1.64H68V40Z" transform="translate(-7.22 -5.89)"/><path class="cls-1" d="M74.21,33.46h2.53a4,4,0,0,1,1.83.39A2.72,2.72,0,0,1,79.75,35a4,4,0,0,1,0,3.5,2.7,2.7,0,0,1-1.17,1.12,4,4,0,0,1-1.84.39H74.21Zm2.43,5.36a1.85,1.85,0,0,0,2.08-2.1,1.84,1.84,0,0,0-2.08-2.09h-1v4.19Z" transform="translate(-7.22 -5.89)"/><path class="cls-1" d="M86.49,40V33.46h1.44V40Z" transform="translate(-7.22 -5.89)"/><path class="cls-1" d="M97.1,39.65A2.8,2.8,0,0,1,96,38.47,4.14,4.14,0,0,1,96,35a2.72,2.72,0,0,1,1.13-1.17,3.4,3.4,0,0,1,1.72-.41,3.62,3.62,0,0,1,1.24.2,2.47,2.47,0,0,1,1,.55l-.46,1a3.23,3.23,0,0,0-.84-.47,2.67,2.67,0,0,0-.88-.15,1.64,1.64,0,0,0-1.33.56,2.42,2.42,0,0,0-.47,1.63,2.44,2.44,0,0,0,.47,1.63,1.64,1.64,0,0,0,1.33.56,2.67,2.67,0,0,0,.88-.15,3.23,3.23,0,0,0,.84-.47l.46,1a2.61,2.61,0,0,1-1,.56,3.88,3.88,0,0,1-1.24.19A3.4,3.4,0,0,1,97.1,39.65Z" transform="translate(-7.22 -5.89)"/><path class="cls-1" d="M108.68,40V33.46h1.45V40Z" transform="translate(-7.22 -5.89)"/><path class="cls-1" d="M123.05,33.46h1.35V40h-1.07l-3.24-4.15V40h-1.34V33.46h1.06l3.24,4.13Z" transform="translate(-7.22 -5.89)"/><path class="cls-1" d="M136.25,40l-.62-1.44h-3L132,40h-1.45l3-6.52h1.16l3,6.52Zm-3.18-2.53h2.09l-1-2.44Z" transform="translate(-7.22 -5.89)"/><path class="cls-1" d="M149.31,33.46h3A2.39,2.39,0,0,1,154,34a2.19,2.19,0,0,1,0,3,2.39,2.39,0,0,1-1.66.54h-1.55V40h-1.45Zm2.81,3c.73,0,1.09-.31,1.09-.94a.89.89,0,0,0-.27-.71,1.25,1.25,0,0,0-.82-.23h-1.36v1.88Z" transform="translate(-7.22 -5.89)"/><path class="cls-1" d="M168.05,40h-1.57l-1.13-2.08a.86.86,0,0,0-.33-.35,1,1,0,0,0-.49-.1h-.72V40h-1.42V33.46h3a2.62,2.62,0,0,1,1.73.5,1.84,1.84,0,0,1,.59,1.46,1.91,1.91,0,0,1-.41,1.24,2.06,2.06,0,0,1-1.16.66,1.45,1.45,0,0,1,.86.73Zm-2-3.84a1,1,0,0,0,0-1.37,1.49,1.49,0,0,0-.9-.21H163.8v1.8h1.37A1.48,1.48,0,0,0,166.07,36.14Z" transform="translate(-7.22 -5.89)"/><path class="cls-1" d="M177.78,40V33.46h1.45V40Z" transform="translate(-7.22 -5.89)"/><path class="cls-1" d="M193.13,33.46h1.46L191.66,40H190.5l-2.94-6.52h1.5l2,4.73Z" transform="translate(-7.22 -5.89)"/><path class="cls-1" d="M207.22,40l-.62-1.44h-3L203,40H201.5l3-6.52h1.15l3,6.52ZM204,37.45h2.09l-1-2.44Z" transform="translate(-7.22 -5.89)"/><path class="cls-1" d="M215.38,33.46h2.54a4,4,0,0,1,1.83.39A2.7,2.7,0,0,1,220.92,35a3.46,3.46,0,0,1,.41,1.75,3.59,3.59,0,0,1-.4,1.75,2.7,2.7,0,0,1-1.17,1.12,4,4,0,0,1-1.84.39h-2.54Zm2.44,5.36a1.85,1.85,0,0,0,2.08-2.1,1.84,1.84,0,0,0-2.08-2.09h-1v4.19Z" transform="translate(-7.22 -5.89)"/><path class="cls-1" d="M233.79,40l-.62-1.44h-3L229.52,40h-1.45l3-6.52h1.16l3,6.52Zm-3.18-2.53h2.09l-1-2.44Z" transform="translate(-7.22 -5.89)"/><rect class="cls-1" y="21.98" width="12.12" height="12.12"/><rect class="cls-1" y="0.16" width="12.12" height="12.12"/><rect class="cls-1" x="21.82" y="21.98" width="12.12" height="12.12"/><rect class="cls-1" x="21.82" y="0.16" width="12.12" height="12.12"/></svg>